<svg xmlns="http://www.w3.org/2000/svg"  viewBox="0 0 48 48" width="100px" height="100px" baseProfile="basic"><path d="M41,23v1.517C38.539,26.546,35.052,27,32.5,27C25.607,27,20,21.393,20,14.5c0-2.192,0.134-3.508,0.897-5.059	C20.967,9.3,20.988,9.15,20.988,9H21V7h-2v1.59c-2.68,2.612-4,5.854-4,9.91C15,26.495,21.505,33,29.5,33	c5.97,0,11.103-2.896,13.397-7.559c0.07-0.142,0.09-0.292,0.09-0.441H43v-2H41z"/><path d="M40,33v1.491C36.996,36.75,32.941,38,28.5,38C18.299,38,10,29.701,10,19.5c0-2.66,0.828-4.698,1.911-7.087	c0.06-0.134,0.08-0.274,0.08-0.413H12v-2h-2v1.643C7.161,14.96,5.56,18.369,5.131,22H5v2c0,11.028,8.972,20,20,20	c6.927,0,13.216-3.154,16.825-8.436c0.118-0.172,0.161-0.369,0.161-0.564H42v-2H40z"/><path d="M41,15v1.37C40.086,16.775,38.902,17,37.5,17c-4.136,0-7.5-3.364-7.5-7.5c0-1.658,0.298-3.038,0.861-3.991	C30.955,5.35,30.988,5.175,30.988,5H31V3h-2v1.48c-1.961,1.359-3.312,3.535-3.794,6.02H25v2c0,5.238,4.262,9.5,9.5,9.5	c3.519,0,6.723-1.721,8.36-4.491c0.094-0.158,0.127-0.334,0.127-0.509H43v-2H41z"/><path fill="#fff" d="M28.5,37C17.73,37,9,28.27,9,17.5c0-2.868,0.888-5.048,2-7.5c-2.945,3.347-5,7.191-5,12	c0,10.493,8.507,19,19,19c6.523,0,12.579-2.992,16-8C37.659,35.683,33.118,37,28.5,37z"/><path fill="#fff" d="M32.5,26C25.044,26,19,19.956,19,12.5c0-2.137,0.116-3.704,1-5.5c-2.694,2.468-4,5.558-4,9.5	C16,23.956,22.044,30,29.5,30c5.319,0,10.3-2.53,12.5-7C39.598,25.201,36.014,26,32.5,26z"/><path fill="#fff" d="M37.5,16c-4.694,0-8.5-3.806-8.5-8.5c0-1.577,0.252-3.234,1-4.5c-2.502,1.479-4,4.383-4,7.5	c0,4.694,3.806,8.5,8.5,8.5c3.117,0,6.021-1.498,7.5-4C40.734,15.748,39.077,16,37.5,16z"/><path d="M25,42C13.972,42,5,33.028,5,22c0-4.506,1.717-8.647,5.249-12.661c0.327-0.371,0.877-0.449,1.294-0.179	c0.416,0.269,0.572,0.801,0.368,1.252C10.828,12.802,10,14.84,10,17.5C10,27.701,18.299,36,28.5,36c4.622,0,8.839-1.342,11.874-3.78	c0.387-0.309,0.941-0.291,1.306,0.046c0.363,0.336,0.426,0.889,0.146,1.298C38.216,38.846,31.927,42,25,42z M8.034,16.5	C7.337,18.27,7,20.084,7,22c0,9.925,8.075,18,18,18c3.879,0,7.53-1.083,10.517-3.033C33.342,37.645,30.97,38,28.5,38	C17.196,38,8,28.804,8,17.5C8,17.158,8.012,16.825,8.034,16.5z"/><path d="M29.5,31C21.505,31,15,24.495,15,16.5c0-4.223,1.415-7.572,4.324-10.237C19.68,5.937,20.215,5.911,20.6,6.2	c0.385,0.289,0.51,0.81,0.298,1.242C20.134,8.992,20,10.308,20,12.5C20,19.393,25.607,25,32.5,25c2.662,0,6.354-0.475,8.824-2.737	c0.355-0.326,0.891-0.351,1.275-0.063c0.385,0.289,0.51,0.81,0.298,1.242C40.603,28.104,35.47,31,29.5,31z M18.016,11.328	C17.33,12.84,17,14.543,17,16.5C17,23.393,22.607,29,29.5,29c3.307,0,6.308-0.998,8.558-2.745C36.115,26.834,34.133,27,32.5,27	C24.505,27,18,20.495,18,12.5C18,12.104,18.003,11.714,18.016,11.328z"/><path d="M34.5,20c-5.238,0-9.5-4.262-9.5-9.5c0-3.519,1.721-6.723,4.491-8.361c0.393-0.232,0.894-0.169,1.216,0.154	c0.323,0.323,0.386,0.823,0.154,1.216C30.298,4.462,30,5.842,30,7.5c0,4.136,3.364,7.5,7.5,7.5c1.659,0,3.039-0.298,3.991-0.861	c0.394-0.232,0.895-0.169,1.216,0.154c0.323,0.323,0.386,0.823,0.153,1.216C41.223,18.279,38.019,20,34.5,20z M28.037,6.432	C27.371,7.617,27,9.021,27,10.5c0,4.136,3.364,7.5,7.5,7.5c1.479,0,2.883-0.371,4.068-1.037C38.225,16.988,37.868,17,37.5,17	c-5.238,0-9.5-4.262-9.5-9.5C28,7.132,28.013,6.776,28.037,6.432z"/></svg>