<svg xmlns="http://www.w3.org/2000/svg"  viewBox="0 0 48 48" width="100px" height="100px" baseProfile="basic"><linearGradient id="qUxyI3vgFveub1eDoKLJXa" x1="-3.608" x2="66.534" y1="8.061" y2="48.557" gradientUnits="userSpaceOnUse"><stop offset="0" stop-color="#969696" stop-opacity="0"/><stop offset="1" stop-color="#7a7979" stop-opacity=".8"/></linearGradient><polygon fill="url(#qUxyI3vgFveub1eDoKLJXa)" points="24,45 5,35 5,13 24,3 43,13 43,35"/><linearGradient id="qUxyI3vgFveub1eDoKLJXb" x1="-3.231" x2="64.117" y1="8.199" y2="47.082" gradientUnits="userSpaceOnUse"><stop offset="0" stop-color="#cccccc" stop-opacity="0"/><stop offset="1" stop-color="#cccccc" stop-opacity=".8"/></linearGradient><path fill="url(#qUxyI3vgFveub1eDoKLJXb)" d="M43,31.502V13L27,4.579v4.969c0,1.114,0.617,2.136,1.603,2.655l5.127,2.698L24,20.534	l-9.729-5.633l5.127-2.698C20.383,11.684,21,10.662,21,9.548V4.579L5,13v18.502l4.543-2.726C10.447,28.233,11,27.257,11,26.203	V19.94l10,5.789v10.911l-5.381-2.832c-0.927-0.488-2.042-0.457-2.941,0.082l-4.573,2.744L24,45l15.894-8.365l-4.573-2.744	c-0.899-0.539-2.013-0.57-2.941-0.082L27,36.641V25.729l10-5.789v6.263c0,1.054,0.553,2.03,1.457,2.572L43,31.502z"/></svg>