<svg xmlns="http://www.w3.org/2000/svg"  viewBox="0 0 48 48" width="100px" height="100px"><polygon fill="#d03827" points="7.306,19.718 16.881,19.718 12.261,6.697"/><polygon fill="#d03827" points="31.083,19.718 40.657,19.718 36.038,6.697"/><path fill="#febf10" d="M25.657,39.785L40.897,20.03l1.867,6.447c0,0,0.287,1.532-1.723,2.553 C39.03,30.051,25.657,39.785,25.657,39.785z"/><path fill="#febf10" d="M22.289,39.785L7.049,20.03l-1.867,6.447c0,0-0.287,1.532,1.723,2.553 C8.916,30.051,22.289,39.785,22.289,39.785z"/><polygon fill="#d03827" points="16.945,20.157 23.902,40.87 31.179,20.03"/><polygon fill="#f58420" points="7.306,20.03 16.849,20.03 24.094,41.317"/><polygon fill="#f58420" points="40.897,20.03 31.354,20.03 24.11,41.317"/><path fill="#010101" d="M42.779,24.065c-0.595-2.134-1.244-4.253-1.947-6.354c-0.703-2.101-1.46-4.184-2.269-6.246 c-0.405-1.031-0.823-2.057-1.254-3.078c-0.186-0.441-0.374-0.881-0.565-1.32c-0.137-0.316-0.258-0.765-0.586-0.951 c-1.106-0.628-1.553,2.047-1.752,2.622c-0.706,2.039-1.473,4.039-1.987,6.138c-0.383,1.564-0.918,3.081-1.479,4.588 c-1.752,0.098-3.511,0.241-5.262,0.257c-2.094,0.019-4.203-0.135-6.295-0.202c-0.731-0.023-1.462-0.047-2.193-0.07 c-0.341-0.97-0.672-1.944-0.99-2.922c-0.69-2.123-1.344-4.258-2.014-6.387c-0.281-0.892-0.578-1.779-0.844-2.675 c-0.13-0.438-0.276-1.125-0.726-1.355c-0.684-0.35-0.994,0.484-1.2,0.958c-0.427,0.983-0.842,1.971-1.246,2.964 c-0.834,2.053-1.615,4.126-2.343,6.219c-0.806,2.317-1.546,4.656-2.22,7.015c-0.495,1.734-1.641,4.529,0.419,5.709 c2.309,1.429,4.492,2.978,6.621,4.661c3.637,2.875,7.405,5.577,11.182,8.265c0.064,0.045,0.132,0.063,0.201,0.069 c0.017,0.003,0.034,0.003,0.051,0.003c0.018-0.001,0.035-0.001,0.053-0.004c0.068-0.006,0.137-0.024,0.2-0.069 c3.776-2.688,7.545-5.39,11.182-8.265c2.129-1.683,4.312-3.233,6.621-4.661C43.947,27.935,43.223,25.661,42.779,24.065z M31.639,20.434c2.793,0.002,5.586,0.022,8.38,0.001c-1.172,1.589-2.452,3.092-3.714,4.61c-1.377,1.657-2.657,3.361-3.889,5.126 c-2.195,3.146-4.785,5.991-7.063,9.075c1.039-3.034,2.141-6.047,3.141-9.094c0.616-1.878,1.121-3.785,1.705-5.672 C30.622,23.112,31.133,21.774,31.639,20.434z M33.79,13.584c0.55-1.859,1.313-3.645,1.886-5.495 c0.058-0.188,0.111-0.378,0.17-0.566c0.034,0.061,0.064,0.116,0.082,0.157c0.094,0.218,0.188,0.436,0.281,0.654 c0.216,0.506,0.428,1.014,0.637,1.523c0.766,1.867,1.489,3.751,2.168,5.651c0.464,1.301,0.901,2.611,1.323,3.926 c-2.775,0.024-5.551,0.004-8.326,0.001c0.048-0.129,0.097-0.258,0.145-0.388C32.812,17.249,33.248,15.415,33.79,13.584z M28.076,20.602c0.827-0.041,1.654-0.082,2.481-0.123c-0.055,0.145-0.109,0.29-0.163,0.435c-0.757,2.014-1.353,4.052-1.966,6.112 c-1.287,4.325-2.886,8.547-4.328,12.822c-1.089-3.632-1.965-7.325-3.458-10.823c-0.876-2.053-1.457-4.211-2.254-6.294 c-0.288-0.752-0.56-1.509-0.833-2.266C21.064,20.59,24.568,20.776,28.076,20.602z M8.595,17.077 c0.641-1.871,1.326-3.728,2.052-5.568c0.37-0.937,0.75-1.869,1.142-2.797c0.172-0.406,0.346-0.811,0.522-1.216 c0.547,1.466,0.944,3.015,1.409,4.506c0.606,1.941,1.209,3.883,1.85,5.813c0.179,0.54,0.373,1.075,0.564,1.61 c-2.768-0.077-5.546-0.111-8.313-0.003C8.073,18.639,8.328,17.856,8.595,17.077z M12.979,32.633 c-2.064-1.643-4.207-3.134-6.451-4.522c-0.901-0.517-0.741-1.665-0.527-2.519c0.24-0.959,0.521-1.91,0.799-2.859 c0.172-0.589,0.357-1.175,0.537-1.762c2.146,2.539,4.279,5.095,6.288,7.744c1.826,2.409,3.494,4.932,5.32,7.341 c0.647,0.853,1.306,1.698,1.972,2.537C18.232,36.659,15.568,34.694,12.979,32.633z M16.968,31.646 c-1.626-2.329-3.334-4.589-5.12-6.798c-1.208-1.494-2.443-2.966-3.682-4.435c2.764-0.097,5.537-0.059,8.301,0.021 c0.008,0,0.013-0.004,0.021-0.004c0.364,1.004,0.734,2.006,1.104,3.01c0.677,1.837,1.199,3.729,1.953,5.538 c1.431,3.434,2.357,7,3.416,10.545C20.879,36.961,18.858,34.354,16.968,31.646z M35.179,32.633 c-2.706,2.154-5.492,4.203-8.299,6.222c2.109-2.745,4.418-5.337,6.4-8.179c1.269-1.819,2.598-3.564,4.019-5.268 c1.207-1.447,2.41-2.896,3.53-4.411c0.085,0.276,0.177,0.549,0.26,0.826c0.33,1.099,0.646,2.202,0.946,3.309 c0.257,0.949,0.659,2.369-0.405,2.979C39.386,29.499,37.242,30.991,35.179,32.633z"/></svg>