<svg xmlns="http://www.w3.org/2000/svg"  viewBox="0 0 100 100" width="100px" height="100px" baseProfile="basic"><path fill="#c4dceb" d="M60.075,27.256c-0.591,0.194-1.181,0.387-1.772,0.581c0.68,0.091,1.361,0.183,2.041,0.274	c1.212,0.123,2.358,0.152,3.582,0.091c2.422-0.121,4.797-0.47,7.229-0.43c6.503,0.107,6.346-9.518,0-10	c-7.162-0.544-14.277,0.226-21.18,2.204c-6.175,1.77-3.55,11.422,2.658,9.643c6.112-1.752,12.185-2.328,18.521-1.847	c0-3.333,0-6.667,0-10c-3.533-0.058-7.058,0.737-10.577,0.344c-2.929-0.327-5.502-0.419-7.575,2.069	C48.913,25.096,55.95,32.207,60.075,27.256L60.075,27.256z"/><path fill="#c4dceb" d="M84.7,17.348c-7.012,0.435-14.028,0.736-21.049,0.911c-3.92-0.191-7.819-0.442-11.608-0.511	c-10.772-0.197-21.545-0.268-32.319-0.235c-4.143,0.013-6.845,5.581-3.536,8.536c1.671,1.492,3.477,2.687,5.374,3.664	c-0.549,0.239-1.049,0.585-1.456,1.052c-2.779,3.192-2.205,6.752-1.988,10.77c0.263,4.866,0.751,9.708,1.39,14.538	c0.102,0.771,0.401,1.474,0.812,2.103c-1.013,1.428-1.372,3.287-0.842,4.826c-0.211,0.074-0.424,0.145-0.632,0.229	c-3.304,1.337-4.311,5.442-2.714,7.901c-0.651,2.828,0.908,6.302,4.68,6.393c10.081,0.243,20.093,0.179,30.17-0.038	c10.798-0.233,21.582,0.897,32.375,0.118c6.247-0.451,6.466-9.351,0.369-9.952c-0.006-0.025-0.014-0.048-0.02-0.073	c0.772-0.796,1.263-1.916,1.242-3.366c-0.157-10.608-0.314-21.215-0.47-31.823c-0.036-2.429-1.442-3.938-3.189-4.535	c1.587-0.171,3.168-0.391,4.74-0.689C91.536,26.124,90.321,17,84.7,17.348z M76.083,28.792c0.112-0.19,0.215-0.38,0.298-0.569	c0.197-0.008,0.393-0.02,0.59-0.03C76.655,28.361,76.355,28.556,76.083,28.792z"/><path fill="#de333b" d="M83.595,28.116c1.543-1.159,3.085-2.318,4.628-3.477c1.503-1.13,2.296-3.029,1.256-4.789	c-0.942-1.594-3.173-2.264-4.789-1.256c-3.891,2.429-7.643,5.19-11.306,7.948c-1.503,1.131-2.297,3.028-1.256,4.789	c0.889,1.503,3.246,2.376,4.789,1.256c3.403-2.472,6.823-4.921,10.226-7.393c-1.178-2.015-2.355-4.03-3.533-6.044	c-0.126,0.093-0.252,0.187-0.378,0.28c-1.51,1.121-2.292,3.035-1.256,4.789c0.881,1.489,3.257,2.393,4.789,1.256	c0.126-0.093,0.252-0.187,0.378-0.28c1.51-1.121,2.292-3.035,1.256-4.789c-0.889-1.503-3.246-2.376-4.789-1.256	c-3.403,2.472-6.823,4.921-10.226,7.393c1.178,2.015,2.355,4.03,3.533,6.044c3.664-2.757,7.416-5.518,11.306-7.948	c-1.178-2.015-2.355-4.03-3.533-6.044c-1.543,1.159-3.085,2.318-4.628,3.477c-1.503,1.13-2.296,3.029-1.256,4.789	C79.683,28.343,82.07,29.262,83.595,28.116L83.595,28.116z"/><path fill="#a42a2b" d="M82.89,38.87c0.191,3.735,0.438,7.464,0.742,11.192c0.361,4.431,7.196,4.549,7,0	c-0.228-5.284-0.455-10.567-0.683-15.851c-0.193-4.481-6.986-4.53-7,0c-0.019,6.331-0.038,12.662-0.058,18.993	c-0.014,4.507,6.932,4.507,7,0c0.095-6.359,0.191-12.717,0.286-19.076c0.068-4.506-6.932-4.508-7,0	c-0.095,6.359-0.191,12.717-0.286,19.076c2.333,0,4.667,0,7,0c0.019-6.331,0.038-12.662,0.058-18.993c-2.333,0-4.667,0-7,0	c0.228,5.284,0.455,10.567,0.683,15.851c2.333,0,4.667,0,7,0c-0.304-3.727-0.551-7.457-0.742-11.192	C89.661,34.387,82.66,34.36,82.89,38.87L82.89,38.87z"/><path fill="#a42a2b" d="M91.326,24.777c0.058-4.552-6.666-4.443-7,0c-0.027,0.359-0.043,0.719-0.069,1.078	c-0.187,0.411-0.305,0.882-0.32,1.423c-0.019,0.691-0.038,1.383-0.057,2.074c-1.289,0.701-2.278,2.071-2.034,3.875	c0.234,1.732,0.438,3.467,0.624,5.204c-0.006,0.302-0.011,0.604-0.017,0.906c-0.465,11.754-0.428,23.684-0.091,35.368	c0.06,2.077,1.83,3.028,3.433,2.868c0.805,0.118,1.657-0.037,2.41-0.392c3.729-1.758,3.101-9.861,2.701-14.777	C91.76,49.927,91.167,37.223,91.326,24.777z"/><path fill="#de333b" d="M25.594,33.471c2.249,0.869,4.241,1.981,6.241,3.31c0.899-2.132,1.798-4.265,2.697-6.397	c-5.208-1.654-9.547-4.828-13.878-8.063c-0.899,2.132-1.798,4.265-2.697,6.397c5.573,1.442,10.899,5.796,15.693,8.895	c5.202,3.362,10.301,6.875,15.325,10.497c3.66,2.638,7.158-3.431,3.533-6.044c-5.527-3.984-11.147-7.832-16.888-11.501	c-4.92-3.145-10.078-7.116-15.803-8.597c-4.068-1.052-5.747,4.12-2.697,6.397c4.87,3.637,9.712,6.913,15.55,8.768	c3.93,1.249,5.884-4.28,2.697-6.397c-2.509-1.667-5.108-2.932-7.914-4.016C23.25,25.097,21.429,31.862,25.594,33.471L25.594,33.471z"/><path fill="#de333b" d="M26.086,35.137c8.296,5.46,16.592,10.921,24.889,16.381c3.774,2.484,7.284-3.575,3.533-6.044	c-8.296-5.46-16.592-10.921-24.889-16.381C25.845,26.609,22.335,32.668,26.086,35.137L26.086,35.137z"/><path fill="#de333b" d="M89.515,19.013c-0.401-0.39-0.896-0.661-1.424-0.823c-1.151-0.477-2.534-0.452-3.743,0.51	c-0.644,0.512-1.297,1.012-1.945,1.518c-4.844,2.114-9.503,6.639-13.287,9.532c-1.203,0.92-2.39,1.858-3.574,2.798	c-4.286,2.964-8.614,5.865-12.955,8.729c-11.1-7.599-22.201-15.199-33.301-22.798c-2.019-1.383-4.65,0.142-5.169,2.284	c-0.602,1.015-0.733,2.313-0.102,3.479c-0.28,1.032-0.077,2.19,0.908,3.18c4.014,4.033,9.577,7.019,14.301,10.114	c2.712,1.777,5.469,3.759,8.308,5.565c4.403,3.256,8.806,6.511,13.208,9.767c1.698,1.255,3.357,0.582,4.284-0.752	c8.455-5.902,16.931-11.773,25.363-17.708C84.615,31.433,95.732,25.057,89.515,19.013z"/><path fill="#de333b" d="M22.19,52.666c0-0.02,0-0.039-0.001-0.059c0.449-6.021,0.609-12.06,0.443-18.128	c-0.015-0.554-0.136-1.039-0.334-1.457c0.422-1.245-0.059-2.789-0.845-3.749c-0.058-0.071-0.116-0.142-0.175-0.213	c-0.193-0.235-0.427-0.412-0.677-0.563c-0.179-2.078-0.333-4.159-0.438-6.247c-0.225-4.48-6.898-4.53-7,0	c-0.176,7.86-0.353,15.72-0.529,23.579c-0.13,5.79-0.412,11.568,0.14,17.305c-0.563,5.737-1.248,12.567,4.924,14.429	c2.25,0.679,3.818-0.829,4.207-2.612c0.294-0.489,0.479-1.08,0.473-1.798C22.316,66.325,22.253,59.495,22.19,52.666z"/><path d="M56.931,21.014c0,0-3.845-0.153-10.696-0.426c-3.457-0.124-7.672-0.275-12.544-0.45c-2.449-0.081-5.064-0.168-7.83-0.26	c-1.387-0.044-2.813-0.089-4.275-0.136c-0.732-0.023-1.473-0.046-2.223-0.069c-0.338-0.017-0.847-0.023-1.291,0.061	c-0.227,0.038-0.451,0.091-0.67,0.157l-0.292,0.097l-0.131,0.048l-0.11-0.01c-0.009-0.001-0.189-0.005-0.274,0.004	c-0.215,0.01-0.428,0.04-0.637,0.085c-0.419,0.088-0.817,0.242-1.187,0.443c-0.369,0.202-0.715,0.451-1.018,0.744	c-0.191,0.179-0.188,0.211-0.258,0.241c-0.055,0.026-0.313,0.194-0.469,0.322c-0.712,0.561-1.223,1.406-1.424,2.278	c-0.109,0.41-0.137,0.932-0.146,1.245l-0.044,1.05c-0.131,2.82-0.267,5.738-0.408,8.746c-0.292,6.029-0.609,12.45-0.683,19.207	c-0.019,1.683-0.012,3.414-0.002,5.114c0.005,1.682-0.05,3.4-0.104,5.151c-0.054,1.752-0.108,3.54-0.097,5.365	c0.009,0.921,0.025,1.816,0.089,2.785c0.054,1.002,0.241,2.024,0.545,3.034c0.311,1.008,0.762,2.017,1.428,2.931	c0.662,0.912,1.534,1.718,2.537,2.296c1.002,0.583,2.112,0.934,3.21,1.099l0.824,0.093l0.815,0.019l1.441-0.005	c3.742-0.036,7.533-0.072,11.366-0.109c6.992-0.094,13.843-0.186,20.511-0.275C59.5,81.833,65.957,82.2,72.284,82.14	c3.147-0.039,6.198-0.152,9.161-0.158c0.764-0.008,1.422,0.019,2.257,0.002c0.849,0.009,1.727-0.153,2.576-0.401	c0.848-0.293,1.654-0.732,2.345-1.307c0.682-0.586,1.219-1.288,1.642-2.016c1.655-2.985,1.417-6.144,1.433-8.767	c-0.036-2.705-0.07-5.335-0.104-7.883c-0.184-10.167-0.418-18.965-0.597-26.004c-0.044-1.757-0.085-3.407-0.123-4.942	c-0.016-0.766-0.032-1.503-0.047-2.21c-0.017-0.36,0.014-0.683-0.054-1.059c-0.054-0.407-0.111-0.583-0.03-0.923	c0.188-1.376-0.295-2.623-0.936-3.471c-0.317-0.435-0.663-0.798-1.004-1.114c-0.358-0.324-0.758-0.523-1.13-0.663	c-0.033-0.014-0.05-0.021-0.066-0.028c-0.02-0.008-0.03-0.013-0.04-0.017l-0.009-0.004l0,0c-0.081-0.031-0.122-0.046-0.163-0.062	l0.009,0.003c-0.541-0.215-0.859-0.25-1.103-0.272c-0.695-0.351-1.33-0.442-1.724-0.456c-0.403-0.016-0.606,0.015-0.606,0.015	s0.205-0.017,0.603,0.022c0.4,0.044,0.982,0.152,1.683,0.558c0.283,0.043,0.55,0.089,1.071,0.312l0.009,0.003	c0.038,0.017,0.076,0.033,0.152,0.066l-0.008-0.004c0.011,0.005,0.021,0.01,0.042,0.02c0.019,0.009,0.037,0.018,0.073,0.035	c0.719,0.272,1.347,0.94,1.911,1.791c0.559,0.838,0.917,1.973,0.686,3.181c-0.016,2.643-0.157,5.689-0.214,9.221	c-0.128,7.08-0.287,15.889-0.469,26.003c-0.05,2.54-0.103,5.162-0.156,7.859c-0.053,1.336-0.036,2.74-0.209,3.977	c-0.166,1.265-0.512,2.5-1.118,3.509c-0.31,0.494-0.671,0.935-1.098,1.284c-0.436,0.336-0.927,0.587-1.467,0.764	c-0.56,0.135-1.143,0.247-1.779,0.219c-0.646,0.001-1.476-0.046-2.21-0.056c-3.028-0.066-6.099-0.018-9.196-0.04	c-6.161-0.059-12.66-0.527-19.398-0.539c-6.692,0.055-13.566,0.111-20.583,0.169c-3.839,0.048-7.634,0.096-11.381,0.143	c-0.45,0.003-0.976,0.02-1.362,0.013l-0.583-0.007l-0.563-0.061c-0.738-0.108-1.421-0.325-2.019-0.664	c-1.199-0.665-2.053-1.865-2.503-3.321c-0.225-0.724-0.385-1.492-0.436-2.289c-0.066-0.828-0.096-1.727-0.116-2.591	c-0.035-1.746-0.01-3.497,0.016-5.25c0.025-1.753,0.051-3.506,0.013-5.259c-0.034-1.711-0.067-3.404-0.1-5.079	c-0.069-6.685,0.08-13.086,0.193-19.123c0.044-3.018,0.087-5.946,0.129-8.775l0.008-1.056c0-0.385,0.006-0.563,0.058-0.828	c0.097-0.481,0.321-0.878,0.665-1.178c0.108-0.085,0.127-0.114,0.366-0.255c0.126-0.056,0.215-0.156,0.297-0.263l0.17-0.19	c0.174-0.182,0.371-0.334,0.58-0.461c0.209-0.126,0.432-0.221,0.657-0.277c0.112-0.029,0.225-0.05,0.337-0.059	c0.078-0.008,0.062-0.008,0.217-0.008l0.38,0.018l0.399-0.177l0.248-0.095c0.145-0.05,0.29-0.09,0.437-0.121	c0.303-0.065,0.552-0.074,0.963-0.073c0.748-0.006,1.488-0.011,2.218-0.017c1.459-0.012,2.881-0.024,4.266-0.035	c2.763-0.027,5.374-0.052,7.82-0.076c4.872-0.06,9.087-0.112,12.544-0.155C53.079,21.076,56.931,21.014,56.931,21.014z"/></svg>